<svg width="24" height="24" viewBox="0 0 24 24" fill="none" xmlns="http://www.w3.org/2000/svg">
<path fill-rule="evenodd" clip-rule="evenodd" d="M12.7071 5.70711C13.0976 5.31658 13.0976 4.68342 12.7071 4.29289C12.3166 3.90237 11.6834 3.90237 11.2929 4.29289L4.29673 11.2891C4.28366 11.302 4.27095 11.3153 4.2586 11.3289C4.0979 11.5063 4 11.7417 4 12C4 12.001 4 12.002 4 12.003C4.00039 12.134 4.02597 12.2591 4.07216 12.3737C4.12097 12.495 4.19455 12.6088 4.29289 12.7071L11.2929 19.7071C11.6834 20.0976 12.3166 20.0976 12.7071 19.7071C13.0976 19.3166 13.0976 18.6834 12.7071 18.2929L7.41419 13H19C19.5523 13 20 12.5523 20 12C20 11.4477 19.5523 11 19 11H7.41423L12.7071 5.70711Z" fill="white"/>
</svg>
