<svg width="24" height="24" viewBox="0 0 24 24" fill="none" xmlns="http://www.w3.org/2000/svg">
<path fill-rule="evenodd" clip-rule="evenodd" d="M11.2929 5.70711C10.9024 5.31658 10.9024 4.68342 11.2929 4.29289C11.6834 3.90237 12.3166 3.90237 12.7071 4.29289L19.7033 11.2891C19.7163 11.302 19.7291 11.3153 19.7414 11.3289C19.9021 11.5063 20 11.7417 20 12C20 12.001 20 12.002 20 12.003C19.9996 12.134 19.974 12.2591 19.9278 12.3737C19.879 12.495 19.8054 12.6088 19.7071 12.7071L12.7071 19.7071C12.3166 20.0976 11.6834 20.0976 11.2929 19.7071C10.9024 19.3166 10.9024 18.6834 11.2929 18.2929L16.5858 13H5C4.44771 13 4 12.5523 4 12C4 11.4477 4.44771 11 5 11H16.5858L11.2929 5.70711Z" fill="white"/>
</svg>
